<svg xmlns="http://www.w3.org/2000/svg" viewBox="0 0 100 100" fill="none">
  <ellipse cx="50" cy="75" rx="40" ry="12" fill="#FFF0F5" stroke="#FFB6C1" stroke-width="2"/>
  <ellipse cx="50" cy="72" rx="32" ry="8" fill="none" stroke="#FFE4EC" stroke-width="1.5"/>
  <path d="M25 45 Q25 28 50 28 Q75 28 75 45 Z" fill="#FFD4A8" stroke="#FF69B4" stroke-width="2"/>
  <circle cx="40" cy="35" r="2" fill="#FF69B4"/>
  <circle cx="50" cy="32" r="2" fill="#FF69B4"/>
  <circle cx="60" cy="35" r="2" fill="#FF69B4"/>
  <path d="M23 48 Q30 52 37 46 Q44 52 50 46 Q56 52 63 46 Q70 52 77 48" fill="none" stroke="#98D8AA" stroke-width="3" stroke-linecap="round"/>
  <rect x="26" y="50" width="48" height="10" rx="3" fill="#D4A574" stroke="#FF69B4" stroke-width="1.5"/>
  <path d="M25 62 L25 67 Q25 72 35 72 L65 72 Q75 72 75 67 L75 62 Z" fill="#FFD4A8" stroke="#FF69B4" stroke-width="2"/>
  <path d="M35 20 Q32 15 35 10" fill="none" stroke="#FFB6C1" stroke-width="2" stroke-linecap="round"/>
  <path d="M50 18 Q47 12 50 6" fill="none" stroke="#FFB6C1" stroke-width="2" stroke-linecap="round"/>
  <path d="M65 20 Q62 15 65 10" fill="none" stroke="#FFB6C1" stroke-width="2" stroke-linecap="round"/>
</svg>
